<svg width="320" height="38" viewBox="0 0 320 38" fill="none" xmlns="http://www.w3.org/2000/svg">
<path d="M36.204 35.764V38H0.428V35.764H5.472V1.652H18.316C23.8973 1.652 27.9533 2.744 30.484 4.928C33.0493 7.07733 34.332 10.4053 34.332 14.912C34.332 19.384 33.0147 22.66 30.38 24.74C27.78 26.82 23.7933 27.86 18.42 27.86H13.584V35.764H36.204ZM19.044 20.84C21.748 20.84 23.5853 20.3027 24.556 19.228C25.5267 18.1187 26.012 16.524 26.012 14.444C26.012 12.3293 25.3707 10.8387 24.088 9.972C22.84 9.07067 20.8813 8.62 18.212 8.62H13.584V20.84H19.044ZM79.1434 35.764V38H36.1914V35.764H47.7874C44.9447 34.1347 42.6914 31.8987 41.0274 29.056C39.3981 26.2133 38.5834 23.0587 38.5834 19.592C38.5834 14.2533 40.4207 9.79867 44.0954 6.228C47.7701 2.62267 52.2941 0.819998 57.6674 0.819998C63.0407 0.819998 67.5647 2.62267 71.2394 6.228C74.9141 9.79867 76.7514 14.2533 76.7514 19.592C76.7514 23.0587 75.9194 26.2133 74.2554 29.056C72.5914 31.8987 70.3554 34.1347 67.5474 35.764H79.1434ZM68.4834 19.644C68.4834 16.3853 67.4434 13.612 65.3634 11.324C63.2834 9.036 60.7181 7.892 57.6674 7.892C54.6514 7.892 52.1034 9.036 50.0234 11.324C47.9434 13.612 46.9034 16.3853 46.9034 19.644C46.9034 22.868 47.9434 25.624 50.0234 27.912C52.1034 30.1653 54.6514 31.292 57.6674 31.292C60.7181 31.292 63.2834 30.1653 65.3634 27.912C67.4434 25.624 68.4834 22.868 68.4834 19.644ZM83.6243 35.764V1.652H97.4043C103.055 1.652 107.076 2.60533 109.468 4.512C111.895 6.41866 113.108 9.48666 113.108 13.716C113.108 19.54 110.803 23.3013 106.192 25L113.784 35.764H118.672V38H105.412L97.3523 26.404H91.7363V38H78.5803V35.764H83.6243ZM97.6643 19.384C100.438 19.384 102.327 18.9333 103.332 18.032C104.338 17.1307 104.84 15.7093 104.84 13.768C104.84 11.792 104.32 10.44 103.28 9.712C102.24 8.984 100.42 8.62 97.8203 8.62H91.7363V19.384H97.6643ZM148.55 35.764V38H116.934V35.764H128.686V8.672H118.39V1.652H147.094V8.672H136.798V35.764H148.55ZM192.614 35.764V38H178.938L175.558 30.148H160.322L156.942 38H143.266V35.764H149.246L164.014 1.652H171.866L186.582 35.764H192.614ZM167.966 12.468L163.39 23.024H172.49L167.966 12.468ZM220.44 35.764V38H186.744V35.764H191.788V1.652H199.9V30.772H215.396V35.764H220.44ZM230.599 35.764V38H216.871V35.764H230.599Z" fill="white"/>
<path d="M267.606 15.12L257.778 34.984H252.942L243.166 15.12V38H230.01V35.764H235.054V1.652H246.026L255.386 21.62L264.798 1.652H275.718V35.764H280.762V38H267.606V15.12ZM319.195 35.764V38H280.195V35.764H291.479C288.706 34.1347 286.522 31.9333 284.927 29.16C283.367 26.352 282.587 23.18 282.587 19.644C282.587 14.3053 284.425 9.83333 288.099 6.228C291.809 2.62267 296.263 0.819998 301.463 0.819998C306.698 0.819998 311.239 2.536 315.087 5.968L310.875 12.052C309.246 10.6307 307.738 9.66 306.351 9.14C304.999 8.58533 303.526 8.308 301.931 8.308C298.846 8.308 296.246 9.36533 294.131 11.48C292.017 13.56 290.959 16.316 290.959 19.748C290.959 23.18 291.965 25.936 293.975 28.016C296.021 30.0613 298.447 31.084 301.255 31.084C304.063 31.084 306.403 30.5467 308.275 29.472V19.488H316.439V32.384C315.261 33.7013 313.857 34.828 312.227 35.764H319.195Z" fill="black"/>
</svg>
