<svg width="87" height="26" viewBox="0 0 87 26" fill="none" xmlns="http://www.w3.org/2000/svg">
<path d="M25.372 24.452V26H0.604V24.452H4.096V0.835998H12.988C16.852 0.835998 19.66 1.592 21.412 3.104C23.188 4.592 24.076 6.896 24.076 10.016C24.076 13.112 23.164 15.38 21.34 16.82C19.54 18.26 16.78 18.98 13.06 18.98H9.712V24.452H25.372ZM13.492 14.12C15.364 14.12 16.636 13.748 17.308 13.004C17.98 12.236 18.316 11.132 18.316 9.692C18.316 8.228 17.872 7.196 16.984 6.596C16.12 5.972 14.764 5.66 12.916 5.66H9.712V14.12H13.492Z" fill="white"/>
<path d="M50.9953 10.16L44.1913 23.912H40.8433L34.0753 10.16V26H24.9673V24.452H28.4593V0.835998H36.0553L42.5353 14.66L49.0513 0.835998H56.6113V24.452H60.1033V26H50.9953V10.16ZM86.7109 24.452V26H59.7109V24.452H67.5229C65.6029 23.324 64.0909 21.8 62.9869 19.88C61.9069 17.936 61.3669 15.74 61.3669 13.292C61.3669 9.596 62.6389 6.5 65.1829 4.004C67.7509 1.508 70.8349 0.259999 74.4349 0.259999C78.0589 0.259999 81.2029 1.448 83.8669 3.824L80.9509 8.036C79.8229 7.052 78.7789 6.38 77.8189 6.02C76.8829 5.636 75.8629 5.444 74.7589 5.444C72.6229 5.444 70.8229 6.176 69.3589 7.64C67.8949 9.08 67.1629 10.988 67.1629 13.364C67.1629 15.74 67.8589 17.648 69.2509 19.088C70.6669 20.504 72.3469 21.212 74.2909 21.212C76.2349 21.212 77.8549 20.84 79.1509 20.096V13.184H84.8029V22.112C83.9869 23.024 83.0149 23.804 81.8869 24.452H86.7109Z" fill="black"/>
</svg>
